<svg width="6" height="8" viewBox="0 0 6 8" fill="none" xmlns="http://www.w3.org/2000/svg">
<path d="M5.09766 0.925781C5.23047 0.925781 5.32161 1.04036 5.37109 1.26953C5.37109 1.35547 5.33333 1.47656 5.25781 1.63281C5.04688 1.74219 4.87109 1.93229 4.73047 2.20312C4.16797 2.96354 3.88672 3.4349 3.88672 3.61719V4.05078C3.88672 4.14453 3.96354 4.3112 4.11719 4.55078L4.98438 5.82812C5.3776 6.35156 5.57422 6.64714 5.57422 6.71484C5.57422 6.91276 5.36979 7.01172 4.96094 7.01172C4.78125 7.01172 4.59115 6.95833 4.39062 6.85156L3.84375 6.21484C3.5 5.63672 3.20312 5.34766 2.95312 5.34766H2.86328C2.63411 5.34766 2.34505 5.59115 1.99609 6.07812C1.96484 6.25521 1.92708 6.3763 1.88281 6.44141C1.66146 6.55599 1.53255 6.64714 1.49609 6.71484C1.46745 6.92839 1.42839 7.03516 1.37891 7.03516H1.3125L1.17578 6.98828L0.582031 7.01172C0.39974 7.01172 0.270833 6.92057 0.195312 6.73828L0.265625 6.53516C0.572917 6.12891 0.785156 5.81641 0.902344 5.59766C1.57161 4.7487 1.90625 4.21745 1.90625 4.00391V3.86719C1.90625 3.55469 1.71615 3.13672 1.33594 2.61328C0.757812 1.77995 0.46875 1.32422 0.46875 1.24609C0.46875 1.10026 0.589844 1.00911 0.832031 0.972656H1.08594L1.28906 0.996094C1.44792 0.996094 1.70703 1.17057 2.06641 1.51953C2.27474 2.05078 2.55469 2.31641 2.90625 2.31641H3.02344C3.17188 2.31641 3.44531 2.05078 3.84375 1.51953C3.92708 1.17057 4.01823 0.996094 4.11719 0.996094L4.61719 1.17578L4.77734 1.13281C4.95182 0.994792 5.05859 0.925781 5.09766 0.925781Z" fill="black"/>
</svg>
